<svg width="135" height="48" viewBox="0 0 135 48" fill="none" xmlns="http://www.w3.org/2000/svg">
<path d="M12.1213 20.7841C9.92256 20.7841 8.09473 18.9974 8.09473 16.7903C8.09473 14.6094 9.89607 12.7964 12.1213 12.7964C14.32 12.7964 16.1478 14.5831 16.1478 16.7903C16.1478 18.9974 14.3465 20.7841 12.1213 20.7841Z" fill="#0FAFE9"/>
<path d="M41.7908 11.5349C41.7908 5.20254 36.5457 0 30.1615 0C23.7508 0 18.5322 5.20254 18.5322 11.5349V28.4038C18.5322 28.4038 41.7908 25.8288 41.7908 11.5349Z" fill="#0FAFE9"/>
<path d="M0 33.7667C0 38.181 3.62918 41.807 8.07957 41.807C12.5299 41.807 16.1591 38.2072 16.1591 33.793V22.0479C16.1856 22.0479 0 23.8346 0 33.7667ZM8.07957 35.895C6.91399 35.895 5.96034 34.9491 5.96034 33.793C5.96034 32.6369 6.91399 31.6909 8.07957 31.6909C9.24514 31.6909 10.1988 32.6369 10.1988 33.793C10.2253 34.9491 9.27163 35.895 8.07957 35.895Z" fill="#0FAFE9"/>
<path d="M51.1292 32.8713C51.1292 34.5389 50.763 36.0221 50.0306 37.3209C49.3145 38.6037 48.2729 39.6059 46.9057 40.3275C45.5549 41.049 43.9599 41.4098 42.1208 41.4098H35.6025V24.405H42.1208C43.9762 24.405 45.5793 24.7577 46.9301 25.4633C48.281 26.1688 49.3145 27.1629 50.0306 28.4457C50.763 29.7285 51.1292 31.2037 51.1292 32.8713ZM41.7546 37.7298C43.3821 37.7298 44.6435 37.3049 45.5386 36.4551C46.45 35.6052 46.9057 34.4106 46.9057 32.8713C46.9057 31.332 46.45 30.1374 45.5386 29.2875C44.6435 28.4377 43.3821 28.0128 41.7546 28.0128H39.7772V37.7298H41.7546Z" fill="#0FAFE9"/>
<path d="M66.9756 27.9887V41.4098H62.7765V38.9805C62.3859 39.7662 61.8 40.3916 61.0188 40.8566C60.2539 41.3216 59.3587 41.5541 58.3334 41.5541C56.771 41.5541 55.5259 41.041 54.5982 40.0148C53.6868 38.9886 53.2311 37.5775 53.2311 35.7816V27.9887H57.3813V35.2765C57.3813 36.1905 57.6173 36.904 58.0893 37.4172C58.5775 37.9142 59.2285 38.1628 60.0423 38.1628C60.8886 38.1628 61.5559 37.8982 62.0442 37.369C62.5324 36.8399 62.7765 36.0863 62.7765 35.1081V27.9887H66.9756Z" fill="#0FAFE9"/>
<path d="M74.9477 27.8204C75.9893 27.8204 76.8844 28.0529 77.6331 28.5179C78.3817 28.9829 78.9351 29.6163 79.2932 30.418V27.9887H83.4434V41.3376C83.4434 42.5884 83.1992 43.7108 82.711 44.7049C82.2227 45.7151 81.4741 46.5169 80.465 47.1102C79.4559 47.7034 78.2027 48.0001 76.7054 48.0001C74.6547 48.0001 73.0109 47.519 71.774 46.557C70.5533 45.6109 69.8209 44.3201 69.5768 42.6846H73.7026C73.8328 43.2297 74.1258 43.6547 74.5815 43.9593C75.0534 44.264 75.6638 44.4163 76.4124 44.4163C77.275 44.4163 77.9667 44.1678 78.4875 43.6707C79.0246 43.1897 79.2932 42.412 79.2932 41.3376V38.9805C78.9351 39.7823 78.3817 40.4156 77.6331 40.8807C76.8844 41.3457 75.9893 41.5782 74.9477 41.5782C73.8247 41.5782 72.8156 41.3056 71.9205 40.7604C71.0416 40.1992 70.3417 39.3974 69.8209 38.3552C69.3164 37.3129 69.0641 36.0943 69.0641 34.6993C69.0641 33.2882 69.3164 32.0696 69.8209 31.0433C70.3417 30.0011 71.0416 29.2074 71.9205 28.6622C72.8156 28.101 73.8247 27.8204 74.9477 27.8204ZM76.2904 31.4282C75.3952 31.4282 74.671 31.7168 74.1176 32.2941C73.5805 32.8713 73.312 33.673 73.312 34.6993C73.312 35.7255 73.5805 36.5272 74.1176 37.1045C74.671 37.6817 75.3952 37.9704 76.2904 37.9704C77.1692 37.9704 77.8853 37.6737 78.4387 37.0804C79.0083 36.4871 79.2932 35.6934 79.2932 34.6993C79.2932 33.6891 79.0083 32.8954 78.4387 32.3181C77.8853 31.7248 77.1692 31.4282 76.2904 31.4282Z" fill="#0FAFE9"/>
<path d="M85.8464 24.2125C85.8464 23.5872 86.0743 23.0741 86.53 22.6732C86.9857 22.2563 87.5879 22.0479 88.3366 22.0479C89.0852 22.0479 89.6874 22.2563 90.1431 22.6732C90.5988 23.0741 90.8267 23.5872 90.8267 24.2125C90.8267 24.8219 90.5988 25.335 90.1431 25.7519C89.6874 26.1527 89.0852 26.3532 88.3366 26.3532C87.5879 26.3532 86.9857 26.1527 86.53 25.7519C86.0743 25.335 85.8464 24.8219 85.8464 24.2125ZM90.4117 27.9887V41.4098H86.237V27.9887H90.4117Z" fill="#0FAFE9"/>
<path d="M97.388 38.259H102.954V41.4098H93.2133V24.405H97.388V38.259Z" fill="#0FAFE9"/>
<path d="M109.966 27.8204C111.008 27.8204 111.903 28.0529 112.652 28.5179C113.401 28.9829 113.954 29.6163 114.312 30.418V27.9887H118.462V41.4098H114.312V38.9805C113.954 39.7823 113.401 40.4156 112.652 40.8807C111.903 41.3457 111.008 41.5782 109.966 41.5782C108.843 41.5782 107.834 41.3056 106.939 40.7604C106.06 40.1992 105.361 39.3974 104.84 38.3552C104.335 37.3129 104.083 36.0943 104.083 34.6993C104.083 33.2882 104.335 32.0696 104.84 31.0433C105.361 30.0011 106.06 29.2074 106.939 28.6622C107.834 28.101 108.843 27.8204 109.966 27.8204ZM111.309 31.4282C110.414 31.4282 109.69 31.7168 109.136 32.2941C108.599 32.8713 108.331 33.673 108.331 34.6993C108.331 35.7255 108.599 36.5272 109.136 37.1045C109.69 37.6817 110.414 37.9704 111.309 37.9704C112.188 37.9704 112.904 37.6737 113.458 37.0804C114.027 36.4871 114.312 35.6934 114.312 34.6993C114.312 33.6891 114.027 32.8954 113.458 32.3181C112.904 31.7248 112.188 31.4282 111.309 31.4282Z" fill="#0FAFE9"/>
<path d="M129.898 27.8444C131.46 27.8444 132.697 28.3575 133.609 29.3837C134.536 30.41 135 31.821 135 33.6169V41.4098H130.826V34.098C130.826 33.2 130.582 32.5025 130.093 32.0054C129.621 31.4923 128.987 31.2358 128.189 31.2358C127.343 31.2358 126.667 31.5003 126.163 32.0295C125.675 32.5586 125.43 33.3123 125.43 34.2904V41.4098H121.256V27.9887H125.43V30.442C125.821 29.6403 126.399 29.0069 127.164 28.5419C127.945 28.0769 128.856 27.8444 129.898 27.8444Z" fill="#0FAFE9"/>
</svg>
