<svg width="18" height="16" viewBox="0 0 18 16" fill="none" xmlns="http://www.w3.org/2000/svg">
<path d="M15.6296 2.4574C15.2465 2.07416 14.7917 1.77014 14.2911 1.56272C13.7905 1.3553 13.254 1.24854 12.7121 1.24854C12.1702 1.24854 11.6337 1.3553 11.1331 1.56272C10.6325 1.77014 10.1777 2.07416 9.7946 2.4574L8.9996 3.2524L8.2046 2.4574C7.43083 1.68364 6.38138 1.24894 5.2871 1.24894C4.19283 1.24894 3.14337 1.68364 2.3696 2.4574C1.59583 3.23117 1.16113 4.28063 1.16113 5.3749C1.16113 6.46918 1.59583 7.51864 2.3696 8.2924L3.1646 9.0874L8.9996 14.9224L14.8346 9.0874L15.6296 8.2924C16.0128 7.90934 16.3169 7.45451 16.5243 6.95392C16.7317 6.45333 16.8385 5.91677 16.8385 5.3749C16.8385 4.83304 16.7317 4.29648 16.5243 3.79589C16.3169 3.29529 16.0128 2.84047 15.6296 2.4574V2.4574Z" stroke="black" stroke-linecap="round" stroke-linejoin="round"/>
</svg>
